<?xml version="1.0" encoding="UTF-8" standalone="no"?>
<svg
   xmlns:dc="http://purl.org/dc/elements/1.1/"
   xmlns:cc="http://creativecommons.org/ns#"
   xmlns:rdf="http://www.w3.org/1999/02/22-rdf-syntax-ns#"
   xmlns:svg="http://www.w3.org/2000/svg"
   xmlns="http://www.w3.org/2000/svg"
   xmlns:sodipodi="http://sodipodi.sourceforge.net/DTD/sodipodi-0.dtd"
   xmlns:inkscape="http://www.inkscape.org/namespaces/inkscape"
   version="1.1"
   id="location-layer"
   x="0px"
   y="0px"
   width="28.090939"
   height="41.908768"
   viewBox="0 0 28.090939 41.908768"
   xml:space="preserve"
   inkscape:version="0.48.2 r9819"
   sodipodi:docname="markerOne.svg"><metadata
   id="metadata10"><rdf:RDF><cc:Work
       rdf:about=""><dc:format>image/svg+xml</dc:format><dc:type
         rdf:resource="http://purl.org/dc/dcmitype/StillImage" /><dc:title /></cc:Work></rdf:RDF></metadata><defs
   id="defs8" /><sodipodi:namedview
   pagecolor="#ffffff"
   bordercolor="#666666"
   borderopacity="1"
   objecttolerance="10"
   gridtolerance="10"
   guidetolerance="10"
   inkscape:pageopacity="0"
   inkscape:pageshadow="2"
   inkscape:window-width="1152"
   inkscape:window-height="815"
   id="namedview6"
   showgrid="false"
   fit-margin-top="0"
   fit-margin-left="0"
   fit-margin-right="0"
   fit-margin-bottom="0"
   inkscape:zoom="2.36"
   inkscape:cx="-55.687402"
   inkscape:cy="16.065014"
   inkscape:window-x="0"
   inkscape:window-y="0"
   inkscape:window-maximized="0"
   inkscape:current-layer="location-layer" />
<rect
   id="frame_6_"
   style="fill:none"
   width="100"
   height="100"
   x="-30.687403"
   y="-24.156246" />

<path
   style="fill:#ff5555;fill-opacity:1;stroke:#ff0000;stroke-width:0.84643346;stroke-miterlimit:4;stroke-opacity:1;stroke-dasharray:none"
   d="M 11.933574,38.595593 C 9.3074768,34.678045 6.5591831,29.841557 3.9162761,24.486628 0.82216912,18.217499 0.41531912,16.935931 0.42252012,13.481377 c 0.0054,-2.615138 0.07344,-2.953064 0.96246398,-4.78366 1.122163,-2.310659 3.874668,-5.182928 6.2769147,-6.5500315 4.0174952,-2.28632944 8.6557242,-2.28310554 12.6835032,0.00882 2.156248,1.2269665 5.076941,4.2169615 6.02577,6.1687505 2.188944,4.502763 1.697033,7.904428 -2.332604,16.130403 -2.744603,5.602744 -9.473736,17.024203 -10.03008,17.024203 -0.07781,0 -1.011518,-1.29792 -2.074914,-2.884266 z"
   id="path3771"
   inkscape:connector-curvature="0" /></svg>