<?xml version="1.0" encoding="utf-8"?>
<!-- Generator: Adobe Illustrator 15.1.0, SVG Export Plug-In . SVG Version: 6.00 Build 0)  -->
<!DOCTYPE svg PUBLIC "-//W3C//DTD SVG 1.1//EN" "http://www.w3.org/Graphics/SVG/1.1/DTD/svg11.dtd">
<svg version="1.1" id="Layer_1" xmlns="http://www.w3.org/2000/svg" xmlns:xlink="http://www.w3.org/1999/xlink" x="0px" y="0px"
	 width="96.659px" height="100px" viewBox="-9.693 0.063 96.659 100" enable-background="new -9.693 0.063 96.659 100"
	 xml:space="preserve">
<path d="M86.022,46.796l-4.779-33.469c-0.519-3.627-3.627-7.939-6.906-9.579c0,0-7.371-3.685-34.029-3.685
	c-26.667,0-37.371,3.685-37.371,3.685C-0.343,5.388-3.452,9.7-3.97,13.327l-4.779,33.469c-0.519,3.627-0.944,9.602-0.944,13.268
	s1.346,9.343,2.978,12.622l0.704,1.407c1.647,3.279,5.893,6.697,9.451,7.579l3.535,0.89v7.494L3.64,100.063h6.667l2.22-6.667h52.219
	l2.22,6.667h6.667L70.3,90.056v-7.494l3.534-0.89c3.558-0.882,7.812-4.3,9.451-7.579l0.695-1.407
	c1.64-3.279,2.985-8.956,2.985-12.622S86.541,50.423,86.022,46.796z M5.303,73.396c-2.761,0-4.996-2.242-4.996-5.004
	c0-2.761,2.235-5.004,4.996-5.004c2.761,0,5.004,2.243,5.004,5.004C10.307,71.154,8.064,73.396,5.303,73.396z M42.527,50.729
	c0,1.466-1.199,2.664-2.669,2.664H2.604c-1.47,0-2.521-1.187-2.344-2.645l4.315-34.706c0.186-1.454,1.532-2.645,2.993-2.645h32.289
	c1.462,0,2.669,1.199,2.669,2.664V50.729L42.527,50.729z M71.969,73.396c-2.761,0-5.004-2.242-5.004-5.004
	c0-2.761,2.243-5.004,5.004-5.004c2.762,0,4.996,2.243,4.996,5.004C76.966,71.154,74.731,73.396,71.969,73.396z"/>
</svg>
