<svg xmlns="http://www.w3.org/2000/svg" xmlns:xlink="http://www.w3.org/1999/xlink" version="1.1" id="Layer_1" x="0px" y="0px" width="50px" height="50px" viewBox="0 0 50 50" enable-background="new 0 0 50 50" xml:space="preserve">
<g>
	<path fill="#000000" d="M43.32,16.005c0.219-0.624,0.359-1.283,0.359-1.979c0-3.33-2.699-6.031-6.031-6.031   c-1.127,0-2.17,0.329-3.072,0.868c-0.65-4.603-4.592-8.145-9.373-8.145c-3.652,0-6.816,2.069-8.399,5.098   c-0.444-0.071-0.897-0.119-1.364-0.119c-4.488,0-8.156,3.473-8.486,7.876c-2.496,1.096-4.245,3.583-4.245,6.483   c0,3.913,3.171,7.083,7.083,7.083c0.311,0,0.606-0.051,0.906-0.09c1.626,2.307,5.277,3.92,9.529,3.92   c3.234,0,6.126-0.93,8.041-2.395c1.42,1.576,3.455,2.586,5.744,2.586c2.797,0,5.227-1.494,6.59-3.717   c0.258,0.037,0.514,0.08,0.781,0.08c3.277,0,5.936-2.658,5.936-5.935C47.318,18.994,45.643,16.81,43.32,16.005z M27.33,19.536   c-0.045-0.026-0.088-0.052-0.135-0.075c0.07-0.017,0.137-0.037,0.205-0.054C27.373,19.447,27.355,19.493,27.33,19.536z"/>
	<g>
		<path fill="#000000" d="M31.729,24H19.841c1.279,3,3.222,7.645,3.222,12.236S21.121,45,19.842,49h11.884    c-1.279-4-2.793-8.172-2.793-12.764S30.449,27,31.729,24z"/>
	</g>
</g>
</svg>