<svg xmlns="http://www.w3.org/2000/svg" xmlns:xlink="http://www.w3.org/1999/xlink" version="1.1" id="Layer_1" x="0px" y="0px" width="100px" height="100px" viewBox="0 0 100 100" enable-background="new 0 0 100 100" xml:space="preserve">
<circle cx="55.66" cy="9.146" r="8.48"/>
<path d="M78.847,45.643l-12.228-5.408L58.84,24.224c-0.205-0.548-0.459-1.072-0.759-1.565l-0.185-0.379  c-0.463-0.95-1.19-1.657-2-2.054c-0.933-0.708-2.019-1.23-3.225-1.496c-0.706-0.155-1.412-0.205-2.109-0.177  c-0.62-0.02-1.279,0.073-1.942,0.309c-1.068,0.303-2.074,0.813-2.971,1.5l-18.264,9.66c-0.33,0.173-0.622,0.378-0.898,0.595  c-0.894,0.481-1.578,1.333-1.78,2.408l-2.853,15.118c-0.357,1.891,0.887,3.714,2.779,4.072c1.891,0.355,3.713-0.889,4.069-2.781  l2.677-14.182l9.81-5.19L36.872,49.66c-0.132,0.593-0.18,1.158-0.165,1.696l-3.272,20.436c-0.073,0.098-0.153,0.182-0.221,0.287  L20.342,91.926c-1.611,2.48-1.299,5.543,0.693,6.834c1.993,1.291,4.911,0.328,6.522-2.154L40.434,76.76  c0.405-0.629,0.689-1.293,0.854-1.953c0.151-0.35,0.278-0.715,0.341-1.109l2.428-15.17c0.297,0.084,0.595,0.156,0.896,0.221  c1.014,0.227,1.9,0.574,2.689,0.934l13.435,16.043l4.153,19.805c0.529,2.512,2.842,4.156,5.166,3.672  c2.323-0.492,3.784-2.924,3.253-5.441L69.43,73.652c-0.166-0.795-0.525-1.486-0.993-2.068c-0.158-0.275-0.341-0.545-0.556-0.801  L53.869,54.055l3.824-17.344l3.328,6.849c0.1,0.206,0.218,0.394,0.342,0.58c0.226,0.942,0.823,1.755,1.732,2.158l12.932,5.721  c1.617,0.719,3.56-0.129,4.339-1.89C81.145,48.367,80.467,46.361,78.847,45.643z"/>
</svg>